<svg width="33" height="32" viewBox="0 0 33 32" fill="none" xmlns="http://www.w3.org/2000/svg">
    <path d="M32.9422 16C32.9422 24.8366 25.7511 32 16.8804 32C8.00971 32 0.818604 24.8366 0.818604 16C0.818604 7.16344 8.00971 0 16.8804 0C25.7511 0 32.9422 7.16344 32.9422 16ZM2.40911 16C2.40911 23.9615 8.88812 30.4156 16.8804 30.4156C24.8726 30.4156 31.3517 23.9615 31.3517 16C31.3517 8.03848 24.8726 1.58439 16.8804 1.58439C8.88812 1.58439 2.40911 8.03848 2.40911 16Z" fill="#EDE7F6"/>
    <path d="M13.9741 23.5234L15.8843 23.1953V14.1367L13.9741 13.8086V12.3203H18.1929V23.1953L20.103 23.5234V25H13.9741V23.5234ZM18.1929 9.07422H15.8843V6.71875H18.1929V9.07422Z" fill="#EDE7F6"/>
</svg>
